name C:\Users\antoi\Documents\MyRepositories\upper-imu-dc\Results\main_tracking\Case_70\ABD01_linearAccelerations_bodyFrame.mot
datacolumns 4
datarows 117
range 2.81000000 3.97000000
endheader 
time	radius_imu_x	radius_imu_y	radius_imu_z	
          2.81000000	         -2.12197749	          9.45127204	          1.73301429	
          2.82000000	         -1.88927745	          9.44810598	          1.63854804	
          2.83000000	         -1.81729610	          9.44518277	          1.61343760	
          2.84000000	         -1.79411017	          9.44712451	          1.61468103	
          2.85000000	         -1.78872834	          9.44902538	          1.62587003	
          2.86000000	         -1.79111612	          9.45091430	          1.64079154	
          2.87000000	         -1.79859587	          9.45226413	          1.65575256	
          2.88000000	         -1.81065840	          9.45299518	          1.66910831	
          2.89000000	         -1.82782729	          9.45305332	          1.68019881	
          2.90000000	         -1.85105539	          9.45248306	          1.68927425	
          2.91000000	         -1.88151638	          9.45140006	          1.69719247	
          2.92000000	         -1.92040972	          9.44998491	          1.70532060	
          2.93000000	         -1.96878949	          9.44845518	          1.71533623	
          2.94000000	         -2.02738512	          9.44704389	          1.72901534	
          2.95000000	         -2.09638850	          9.44599940	          1.74803045	
          2.96000000	         -2.17530713	          9.44559497	          1.77371289	
          2.97000000	         -2.26290061	          9.44613514	          1.80690135	
          2.98000000	         -2.35723749	          9.44794452	          1.84783598	
          2.99000000	         -2.45587133	          9.45133813	          1.89618643	
          3.00000000	         -2.55619722	          9.45658148	          1.95120109	
          3.01000000	         -2.65586389	          9.46384860	          2.01186499	
          3.02000000	         -2.75298402	          9.47319032	          2.07702466	
          3.03000000	         -2.84621761	          9.48451466	          2.14537863	
          3.04000000	         -2.93479171	          9.49758390	          2.21547907	
          3.05000000	         -3.01841756	          9.51202623	          2.28572211	
          3.06000000	         -3.09718896	          9.52736076	          2.35437973	
          3.07000000	         -3.17143389	          9.54303711	          2.41970811	
          3.08000000	         -3.24150856	          9.55848183	          2.48005199	
          3.09000000	         -3.30774176	          9.57316253	          2.53404448	
          3.10000000	         -3.37015001	          9.58664769	          2.58081898	
          3.11000000	         -3.42822828	          9.59863833	          2.61986802	
          3.12000000	         -3.48100800	          9.60900658	          2.65118393	
          3.13000000	         -3.52712799	          9.61779891	          2.67517773	
          3.14000000	         -3.56488567	          9.62520066	          2.69248145	
          3.15000000	         -3.59256261	          9.63149244	          2.70387000	
          3.16000000	         -3.60846713	          9.63697407	          2.71003757	
          3.17000000	         -3.61113975	          9.64189920	          2.71147621	
          3.18000000	         -3.59962918	          9.64643510	          2.70847597	
          3.19000000	         -3.57371102	          9.65064139	          2.70117031	
          3.20000000	         -3.53401778	          9.65449482	          2.68977403	
          3.21000000	         -3.48233799	          9.65795895	          2.67508790	
          3.22000000	         -3.42089089	          9.66098915	          2.65826403	
          3.23000000	         -3.35230530	          9.66360069	          2.64127877	
          3.24000000	         -3.28098027	          9.66603001	          2.62777500	
          3.25000000	         -3.21005760	          9.66850524	          2.62125649	
          3.26000000	         -3.14282489	          9.67132698	          2.62559739	
          3.27000000	         -3.08108934	          9.67470825	          2.64398243	
          3.28000000	         -3.02636401	          9.67877066	          2.67882543	
          3.29000000	         -2.97923319	          9.68341809	          2.73107195	
          3.30000000	         -2.93945687	          9.68828379	          2.79999026	
          3.31000000	         -2.90638472	          9.69277067	          2.88353943	
          3.32000000	         -2.87877063	          9.69609706	          2.97850184	
          3.33000000	         -2.85546312	          9.69746975	          3.08136323	
          3.34000000	         -2.83493517	          9.69614801	          3.18853775	
          3.35000000	         -2.81579244	          9.69151830	          3.29687334	
          3.36000000	         -2.79647860	          9.68305819	          3.40359250	
          3.37000000	         -2.77549485	          9.67033401	          3.50629962	
          3.38000000	         -2.75133482	          9.65299853	          3.60285243	
          3.39000000	         -2.72241245	          9.63080358	          3.69129464	
          3.40000000	         -2.68731611	          9.60367317	          3.77030566	
          3.41000000	         -2.64534542	          9.57172699	          3.83988286	
          3.42000000	         -2.59957586	          9.53524898	          3.90003092	
          3.43000000	         -2.54925971	          9.49420813	          3.94934662	
          3.44000000	         -2.48431275	          9.44804482	          3.98648782	
          3.45000000	         -2.42749134	          9.39823757	          4.01821426	
          3.46000000	         -2.37133477	          9.34556362	          4.05434444	
          3.47000000	         -2.32563129	          9.29110033	          4.09548099	
          3.48000000	         -2.27097731	          9.23262831	          4.12595798	
          3.49000000	         -2.22765456	          9.17197226	          4.15671924	
          3.50000000	         -2.19641657	          9.10826437	          4.17226578	
          3.51000000	         -2.13150880	          9.04246884	          4.19479761	
          3.52000000	         -2.12058106	          8.97871019	          4.23445291	
          3.53000000	         -2.13241563	          8.91641293	          4.28401704	
          3.54000000	         -2.13264984	          8.85453446	          4.33763529	
          3.55000000	         -2.13742845	          8.79299106	          4.38904021	
          3.56000000	         -2.14900329	          8.73138784	          4.43537939	
          3.57000000	         -2.16408044	          8.67261235	          4.50124270	
          3.58000000	         -2.19432246	          8.61524304	          4.56938550	
          3.59000000	         -2.22946026	          8.55798055	          4.63322828	
          3.60000000	         -2.26015723	          8.50269564	          4.70608136	
          3.61000000	         -2.29355971	          8.44703002	          4.77661306	
          3.62000000	         -2.32858749	          8.39167610	          4.84803820	
          3.63000000	         -2.36551229	          8.33598129	          4.91966197	
          3.64000000	         -2.40353483	          8.27984661	          4.99152543	
          3.65000000	         -2.44253322	          8.22288638	          5.06386411	
          3.66000000	         -2.48212345	          8.16531273	          5.13832990	
          3.67000000	         -2.52208972	          8.10726278	          5.21632729	
          3.68000000	         -2.56189823	          8.04904883	          5.29948834	
          3.69000000	         -2.60092081	          7.99108750	          5.38952225	
          3.70000000	         -2.63867374	          7.93385816	          5.48783298	
          3.71000000	         -2.67472405	          7.87783511	          5.59538236	
          3.72000000	         -2.70844154	          7.82339921	          5.71248861	
          3.73000000	         -2.73920294	          7.77075311	          5.83857161	
          3.74000000	         -2.76662248	          7.71993176	          5.97248079	
          3.75000000	         -2.79054853	          7.67076089	          6.11213845	
          3.76000000	         -2.81061752	          7.62299226	          6.25544127	
          3.77000000	         -2.82653399	          7.57625538	          6.39971220	
          3.78000000	         -2.83821523	          7.53011161	          6.54209902	
          3.79000000	         -2.84564630	          7.48405872	          6.67976445	
          3.80000000	         -2.84878661	          7.43755264	          6.81027673	
          3.81000000	         -2.84751313	          7.39003356	          6.93185985	
          3.82000000	         -2.84154159	          7.34097834	          7.04355312	
          3.83000000	         -2.83030765	          7.28995421	          7.14518175	
          3.84000000	         -2.81316397	          7.23664950	          7.23719589	
          3.85000000	         -2.78964332	          7.18084360	          7.32024532	
          3.86000000	         -2.75973269	          7.12235929	          7.39480977	
          3.87000000	         -2.72346188	          7.06113124	          7.46176038	
          3.88000000	         -2.68105475	          6.99714793	          7.52200393	
          3.89000000	         -2.63494168	          6.93012377	          7.57426520	
          3.90000000	         -2.58657934	          6.85997474	          7.61860237	
          3.91000000	         -2.53728249	          6.78663130	          7.65514057	
          3.92000000	         -2.48850222	          6.70998464	          7.68379229	
          3.93000000	         -2.44143746	          6.62992993	          7.70464051	
          3.94000000	         -2.39693897	          6.54639738	          7.71804471	
          3.95000000	         -2.35547982	          6.45939473	          7.72468776	
          3.96000000	         -2.31720107	          6.36903970	          7.72555610	
          3.97000000	         -2.28200250	          6.27556283	          7.72187845	
